<svg xmlns="http://www.w3.org/2000/svg" aria-hidden="true" style="position:absolute;width:0;height:0;overflow:hidden">
  <defs>
    <symbol id="icon-arrow-thin-top-right-corner-icon" viewBox="0 0 32 32">
      <path d="M10.339.003c-.557-.037-1.035.384-1.066.941s.396 1.039.953 1.076l17.151 1.161L.294 30.265c-.394.394-.391 1.037.007 1.435s1.041.401 1.435.008L28.82 4.624l1.161 17.151c.037.557.519.984 1.076.953s.979-.509.941-1.066L30.687 2.29a1.024 1.024 0 0 0-.953-.973L10.34.004z"/>
    </symbol>
    <symbol id="icon-check-mark-line-icon" viewBox="0 0 44 32">
      <path d="M.439 19.783a1.334 1.334 0 0 1 1.79-1.978l12.129 10.998L41.463.416A1.337 1.337 0 1 1 43.4 2.259L15.394 31.587a1.334 1.334 0 0 1-1.862.07L.439 19.784z"/>
    </symbol>
    <symbol id="icon-close-line-icon" viewBox="0 0 32 32">
      <path d="M.371 2.165A1.268 1.268 0 0 1 2.164.372l13.835 13.835L29.834.372a1.27 1.27 0 0 1 1.794 1.793L17.792 16l13.835 13.835a1.268 1.268 0 1 1-1.794 1.793L15.998 17.793 2.163 31.628A1.268 1.268 0 0 1 .37 29.835L14.205 16 .37 2.165z"/>
    </symbol>
    <symbol id="icon-en-language-icon" viewBox="0 0 39 32">
      <path d="M5.66 0h27.674c3.113 0 5.66 2.548 5.66 5.66v20.68c0 3.108-2.551 5.66-5.66 5.66H5.66C2.547 32 0 29.451 0 26.34V5.66C0 2.544 2.545 0 5.66 0zm11.342 17.273h-3.328v1.265h4.077V21.2h-7.404V10.801h7.321l-.416 2.663h-3.577v1.398h3.327v2.412zM25.52 21.2c-.304-.441-2.756-4.492-2.778-4.492V21.2h-3.328V10.801h3.127c.3.436 2.698 4.493 2.779 4.493v-4.493h3.328V21.2H25.52zm7.814-18.464H5.66A2.936 2.936 0 0 0 2.736 5.66v20.68a2.932 2.932 0 0 0 2.924 2.924h27.674a2.928 2.928 0 0 0 2.924-2.924V5.66a2.935 2.935 0 0 0-2.924-2.924z"/>
    </symbol>
    <symbol id="icon-es-language-icon" viewBox="0 0 39 32">
      <path d="M5.66 0h27.674c3.113 0 5.66 2.548 5.66 5.66v20.68c0 3.108-2.551 5.66-5.66 5.66H5.66C2.547 32 0 29.451 0 26.34V5.66C0 2.544 2.545 0 5.66 0zm13.904 21.017.465-2.746c1.021.255 1.938.382 2.754.382s1.472-.033 1.972-.099v-.832l-1.498-.133c-1.353-.123-2.282-.447-2.787-.973s-.757-1.306-.757-2.338c0-1.42.308-2.396.923-2.928s1.661-.798 3.136-.798 2.807.139 3.994.416l-.417 2.663c-1.031-.167-1.858-.251-2.478-.251s-1.148.028-1.581.084v.815l1.198.117c1.453.145 2.457.491 3.011 1.04s.832 1.312.832 2.288c0 .699-.094 1.289-.283 1.772s-.413.848-.674 1.098c-.26.25-.63.441-1.107.573s-.896.214-1.256.241c-.36.028-.84.042-1.439.042-1.442 0-2.778-.145-4.009-.433zm-2.246-3.744H13.99v1.265h4.076V21.2h-7.404V10.801h7.32l-.416 2.663h-3.577v1.398h3.327v2.412zM33.334 2.736H5.66A2.936 2.936 0 0 0 2.736 5.66v20.68a2.932 2.932 0 0 0 2.924 2.924h27.674a2.928 2.928 0 0 0 2.924-2.924V5.66a2.935 2.935 0 0 0-2.924-2.924z"/>
    </symbol>
    <symbol id="icon-instagram-shop-icon" viewBox="0 0 29 32">
      <path d="M14.5 2c1.05 0 2.063.431 2.816 1.211A4.268 4.268 0 0 1 18.5 6.176V7h-8v-.824c0-1.118.429-2.184 1.184-2.965A3.914 3.914 0 0 1 14.5 2zm-6 4.175v.824H4.97c-1.252 0-2.372.369-3.179 1.177-.802.802-1.172 1.914-1.177 3.16L.001 23.657v.025c0 4.779 3.41 8.317 8.207 8.317h12.586c4.794 0 8.215-3.521 8.207-8.305v-.024l-.617-12.362c-.005-1.246-.374-2.354-1.179-3.15-.809-.801-1.928-1.159-3.174-1.159h-3.53v-.824a6.268 6.268 0 0 0-1.745-4.354C17.634.659 16.104 0 14.501 0s-3.133.659-4.255 1.821a6.268 6.268 0 0 0-1.745 4.354zM4.97 9h19.061c.871 0 1.428.245 1.767.581.337.333.586.884.586 1.754v.025L27 23.721C26.995 27.415 24.445 30 20.793 30H8.207C4.559 30 2.011 27.405 2 23.707l.613-12.319v-.025c0-.871.25-1.431.591-1.773S4.104 9 4.969 9zm5.53 4c0 1.105.448 2.105 1.172 2.829a4 4 0 0 0 6.828-2.828 1 1 0 0 1 2 0v.001a5.978 5.978 0 0 1-1.758 4.242 5.981 5.981 0 0 1-4.243 1.757 5.985 5.985 0 0 1-4.243-1.757 5.979 5.979 0 0 1-1.757-4.242v-.001a1 1 0 0 1 2 0z"/>
    </symbol>
    <symbol id="icon-line-angle-down-icon" viewBox="0 0 59 32">
      <path d="M5.586.933C4.28-.334 2.2-.306.933.995S-.306 4.381.995 5.648l26.204 25.41 2.296-2.358-2.296 2.367a3.3 3.3 0 0 0 4.768-.187L57.769 5.647A3.288 3.288 0 1 0 53.183.932L29.485 24.108 5.587.932z"/>
    </symbol>
    <symbol id="icon-magnifying-glass-icon" viewBox="0 0 32 32">
      <path d="M13.963 0c3.856 0 7.346 1.563 9.873 4.09s4.09 6.017 4.09 9.873c0 2.821-.837 5.446-2.275 7.642l6.043 6.586L27.527 32l-5.828-6.412a13.892 13.892 0 0 1-7.736 2.338c-3.856 0-7.346-1.563-9.873-4.09S0 17.818 0 13.963c0-3.856 1.563-7.346 4.09-9.873S10.108 0 13.963 0zm8.771 5.191c-2.244-2.245-5.346-3.633-8.772-3.633S7.435 2.947 5.19 5.191c-2.245 2.245-3.633 5.346-3.633 8.772s1.389 6.527 3.633 8.771c2.245 2.245 5.346 3.633 8.772 3.633s6.527-1.388 8.772-3.633c2.245-2.244 3.633-5.346 3.633-8.771s-1.388-6.527-3.633-8.772z"/>
    </symbol>
    <symbol id="icon-magnifying-glass-zoom-icon" viewBox="0 0 32 32">
      <path d="M12.982 9.006a.98.98 0 1 1 1.962 0v3.975h3.975a.98.98 0 1 1 0 1.962h-3.976v3.975a.98.98 0 1 1-1.962 0v-3.975H9.006a.98.98 0 1 1 0-1.962h3.976V9.006zM25.65 21.605l6.043 6.586L27.526 32l-5.828-6.412a13.894 13.894 0 0 1-7.736 2.338c-3.856 0-7.346-1.563-9.873-4.09s-4.09-6.018-4.09-9.873c0-3.856 1.563-7.346 4.09-9.873S10.107 0 13.962 0s7.346 1.563 9.873 4.09a13.92 13.92 0 0 1 4.09 9.873c0 2.821-.837 5.446-2.276 7.642zM22.735 5.191c-2.245-2.245-5.346-3.633-8.772-3.633S7.436 2.947 5.191 5.191c-2.245 2.245-3.633 5.346-3.633 8.772s1.389 6.527 3.633 8.771c2.245 2.245 5.346 3.633 8.772 3.633s6.527-1.388 8.772-3.633 3.633-5.346 3.633-8.771-1.389-6.527-3.633-8.772z"/>
    </symbol>
    <symbol id="icon-magnifying-glass-zoom-out-icon" viewBox="0 0 32 32">
      <path d="M9.006 14.944a.98.98 0 1 1 0-1.962h9.912a.98.98 0 1 1 0 1.962H9.006zm16.644 6.661 6.043 6.586L27.526 32l-5.828-6.412a13.897 13.897 0 0 1-7.736 2.338c-3.856 0-7.346-1.563-9.873-4.09s-4.09-6.017-4.09-9.873c0-3.856 1.563-7.346 4.09-9.873S10.106 0 13.962 0c3.856 0 7.346 1.563 9.873 4.09s4.09 6.017 4.09 9.873c0 2.821-.837 5.446-2.276 7.642zM22.734 5.191c-2.244-2.245-5.346-3.633-8.771-3.633S7.436 2.947 5.191 5.191c-2.245 2.245-3.633 5.346-3.633 8.772s1.389 6.527 3.633 8.772c2.245 2.244 5.346 3.633 8.772 3.633s6.527-1.389 8.771-3.633c2.245-2.245 3.634-5.346 3.634-8.772s-1.389-6.527-3.634-8.772z"/>
    </symbol>
    <symbol id="icon-plus-line-icon" viewBox="0 0 32 32">
      <path d="M14.733 1.268a1.262 1.262 0 0 1 .371-.896 1.264 1.264 0 0 1 1.381-.274l.01.004a1.264 1.264 0 0 1 .771 1.19v13.443h13.442l.023-.002c.171 0 .335.034.485.097l.01.004a1.264 1.264 0 0 1-.009 2.338 1.267 1.267 0 0 1-.508.094H17.267v13.442a1.268 1.268 0 0 1-.095.508l-.005.01a1.264 1.264 0 0 1-2.063.402 1.268 1.268 0 0 1-.37-.919V17.267H1.292l-.023.002a1.278 1.278 0 0 1-1.171-.783 1.268 1.268 0 0 1 .275-1.381 1.264 1.264 0 0 1 .919-.369h13.443V1.293l-.002-.023z"/>
    </symbol>
    <symbol id="icon-recycle-bin-line-icon" viewBox="0 0 28 32">
      <path d="M1.269 2.359h8.685v-.748a1.609 1.609 0 0 1 .477-1.137l-.002-.002a1.612 1.612 0 0 1 1.126-.47l.006.001V0h5.19c.028 0 .054.002.08.006.412.022.786.198 1.058.471.287.288.465.686.47 1.124l-.001.005h.004v.752h8.574c.036 0 .07.004.104.009.308.028.587.163.79.367l.001.002.001-.002c.222.223.361.533.365.877l-.001.008h.004v2.828a.695.695 0 0 1-.695.694H.692a.695.695 0 0 1-.695-.694V3.623c0-.028.001-.055.005-.082v-.005c.023-.314.163-.6.37-.807L.37 2.728c.224-.224.536-.364.879-.368l.008.001v-.003h.008zm18.989 10.427H18.71v14.608h1.548V12.786zm-5.034 0h-1.549v14.608h1.549V12.786zm-5.034 0H8.642v14.608h1.548V12.786zM2.822 8.221l22.942.015c.355.042.687.205.93.445.271.267.444.629.444 1.032 0 .026-.002.05-.005.074l-.001.018-.004.04-1.925 20.66-.002.011h.002l-.004.036-.013.074-.001.001-.001.005a1.799 1.799 0 0 1-.054.242l-.002.006-.001.001-.002.005-.006.016-.001.005a1.68 1.68 0 0 1-.113.263c-.263.49-.75.83-1.355.83l-19.006-.005a1.436 1.436 0 0 1-.647-.182l-.002-.001-.001.001c-.465-.254-.775-.751-.826-1.308L1.266 9.807l-.003-.064-.001-.03h-.001c0-.404.173-.767.445-1.034.254-.249.604-.416.978-.449l.032-.001v-.002l.078-.003.027.001v-.004zM25.579 9.61 2.792 9.609a.208.208 0 0 0-.114.058c-.016.016-.027.034-.027.047h-.002l.002.031 1.896 20.636h-.001l.001.003c.008.098.053.18.116.215l-.001.001.022.008.016.003h18.951c.054 0 .104-.041.135-.098l.022-.051.014-.056.004-.036h.001L25.75 9.742l-.001-.029c0-.012-.011-.029-.027-.045a.212.212 0 0 0-.117-.059l-.027.001zm.029 0zm.143.133zm1.379.098zM10.648 3.747H1.389v2.007h25.424V3.747h-9.145a.694.694 0 0 1-.694-.694V1.606h.002a.231.231 0 0 0-.203-.218l-5.212-.002a.228.228 0 0 0-.15.067l-.001-.001-.002.001a.24.24 0 0 0-.067.13l.002.027v1.442a.695.695 0 0 1-.695.694z"/>
    </symbol>
    <symbol id="icon-search-line-icon" viewBox="0 0 31 32">
      <path d="M12.583 0c3.475 0 6.62 1.408 8.897 3.685s3.685 5.423 3.685 8.897c0 3.336-1.298 6.367-3.416 8.619a.9.9 0 0 1 .111.095l9.059 9.046a.97.97 0 0 1-1.367 1.375l-9.059-9.046a.994.994 0 0 1-.147-.186 12.53 12.53 0 0 1-7.764 2.68c-3.475 0-6.621-1.408-8.898-3.685s-3.685-5.423-3.685-8.898 1.408-6.62 3.685-8.897A12.544 12.544 0 0 1 12.582 0zm7.49 5.092c-1.917-1.917-4.565-3.103-7.49-3.103S7.009 3.175 5.092 5.092c-1.917 1.917-3.103 4.565-3.103 7.49s1.186 5.574 3.103 7.491c1.917 1.917 4.565 3.103 7.491 3.103s5.573-1.186 7.49-3.103c1.917-1.917 3.103-4.565 3.103-7.491s-1.186-5.573-3.103-7.49z"/>
    </symbol>
    <symbol id="icon-shopping-bag-icon" viewBox="0 0 28 32">
      <path d="M1.284 7.901h5.854V6.708a6.712 6.712 0 0 1 13.42-.007v1.2h5.901c.353.001.673.145.904.378.232.231.375.551.375.904v18.206a4.622 4.622 0 0 1-4.609 4.609H4.61a4.621 4.621 0 0 1-4.609-4.606V9.188c0-.354.145-.675.378-.906.231-.232.55-.377.903-.378zm7.489 0h10.156V6.708a5.078 5.078 0 0 0-10.156 0v1.193zm-1.635 3.385v-1.75H1.635v16.146h24.479V9.536h-5.557v1.76a1.689 1.689 0 0 1-.846 3.148 1.688 1.688 0 0 1-.799-3.175l.009-.004V9.536H8.765v1.747a1.69 1.69 0 0 1-.818 3.164 1.688 1.688 0 0 1-.827-3.16l.008-.004z"/>
    </symbol>
    <symbol id="icon-shopping-cart-icon" viewBox="0 0 37 32">
      <path d="M1.161 2.352C.536 2.352 0 1.816 0 1.161 0 .536.536 0 1.161 0H4.316C5.388.03 6.34.238 7.144.744c.893.566 1.548 1.429 1.905 2.709 0 .03 0 .06.03.089l.298 1.191h26.047c.655 0 1.161.536 1.161 1.161 0 .119-.03.238-.06.357l-3.036 12.234a1.147 1.147 0 0 1-1.131.893H13.307c.417 1.548.834 2.381 1.399 2.768.685.447 1.875.476 3.87.447h13.485c.655 0 1.161.536 1.161 1.161 0 .655-.536 1.161-1.161 1.161H18.606c-2.471.03-3.989-.03-5.209-.834-1.25-.834-1.905-2.262-2.56-4.852L6.848 4.137c0-.03 0-.03-.03-.06-.179-.655-.476-1.101-.893-1.34-.417-.268-.982-.387-1.637-.387H1.163zm27.416 23.933a2.859 2.859 0 1 1-.001 5.717 2.859 2.859 0 0 1 .001-5.717zm-12.532 0a2.859 2.859 0 1 1-.001 5.717 2.859 2.859 0 0 1 .001-5.717zm-6.013-19.23 2.649 9.972h18.783l2.471-9.972H10.032z"/>
    </symbol>
    <symbol id="icon-three-horizontal-lines-outline-icon" viewBox="0 0 47 32">
      <path d="M0 0h46.589v2.176H0V0zm0 29.824h46.589V32H0v-2.176zm0-14.912h46.589v2.176H0v-2.176z"/>
    </symbol>
    <symbol id="icon-zoom-in-line-icon" viewBox="0 0 31 32">
      <path d="M20.493 22.672a.949.949 0 0 1-.146-.186 12.53 12.53 0 0 1-7.764 2.68c-3.475 0-6.621-1.408-8.898-3.685S0 16.058 0 12.583s1.408-6.62 3.685-8.897S9.108.001 12.583.001s6.62 1.408 8.897 3.685 3.685 5.423 3.685 8.897c0 3.335-1.298 6.367-3.416 8.62.039.028.076.06.11.095l9.059 9.046a.97.97 0 0 1-1.367 1.375l-9.059-9.046zM7.671 13.555a.972.972 0 1 1 0-1.944h3.939V7.672a.972.972 0 1 1 1.944 0v3.939h3.939a.972.972 0 1 1 0 1.944h-3.939v3.939a.972.972 0 1 1-1.944 0v-3.939H7.671zm12.402-8.463c-1.917-1.917-4.565-3.103-7.49-3.103S7.009 3.175 5.092 5.092s-3.103 4.565-3.103 7.49 1.186 5.574 3.103 7.491c1.917 1.917 4.565 3.103 7.491 3.103s5.573-1.186 7.49-3.103c1.917-1.917 3.103-4.565 3.103-7.491s-1.186-5.573-3.103-7.49z"/>
    </symbol>
    <symbol id="icon-zoom-out-line-icon" viewBox="0 0 31 32">
      <path d="M7.672 13.555a.972.972 0 1 1 0-1.944h9.823a.972.972 0 1 1 0 1.944H7.672zM12.583 0c3.474 0 6.62 1.408 8.897 3.685s3.685 5.423 3.685 8.897a12.54 12.54 0 0 1-3.416 8.619c.039.028.076.06.11.095l9.059 9.046a.97.97 0 0 1-1.367 1.375l-9.059-9.046a.949.949 0 0 1-.146-.186 12.531 12.531 0 0 1-7.764 2.68c-3.474 0-6.62-1.408-8.898-3.685s-3.685-5.423-3.685-8.898c0-3.474 1.408-6.62 3.685-8.897S9.107 0 12.581 0zm7.49 5.092c-1.917-1.917-4.565-3.103-7.491-3.103S7.008 3.175 5.091 5.092c-1.917 1.917-3.103 4.565-3.103 7.491s1.186 5.574 3.103 7.491c1.917 1.917 4.565 3.103 7.491 3.103s5.573-1.186 7.491-3.103c1.917-1.917 3.103-4.565 3.103-7.491s-1.186-5.574-3.103-7.491z"/>
    </symbol>
    <symbol id="icon-minus" viewBox="0 0 32 32">
      <path stroke-linecap="round" stroke-linejoin="round" stroke-width="2.667" d="M6.667 16h18.667"/>
    </symbol>
  </defs>
</svg>
